Coordinates
version=1
nRows=14
nColumns=33
inDegrees=yes

Units are S.I. units (second, meters, Newtons, ...)
Angles are in degrees.

endheader
time	ground_thorax_rot_x	ground_thorax_rot_y	ground_thorax_rot_z	ground_thorax_tx	ground_thorax_ty	ground_thorax_tz	clav_prot_r	clav_elev_r	scapula_abduction_r	scapula_elevation_r	scapula_upward_rot_r	scapula_winging_r	shoulder_elv_r	plane_of_elev_r	axial_rot_r	elbow_flexion_r	pro_sup_r	wrist_flex_r	wrist_dev_r	clav_prot_l	clav_elev_l	scapula_abduction_l	scapula_elevation_l	scapula_upward_rot_l	scapula_winging_l	shoulder_elv_l	plane_of_elev_l	axial_rot_l	elbow_flexion_l	pro_sup_l	wrist_flex_l	wrist_dev_l
      0.93000000	     25.64313926	     39.77820465	      0.88035064	      0.02443542	      1.00386786	     -0.04610906	    -22.97477367	     31.03706076	    -24.67225985	     21.68234888	     45.00000000	    -12.53152884	     -3.14061966	    -90.00000000	     10.43167536	     82.40001902	      7.22982513	     35.17568287	    -15.88524077	     19.48647606	     -9.47616016	    -45.00000000	      1.95479729	      2.95564906	     19.84623310	     23.34223371	    -41.97082154	    -25.00188489	     68.56966613	     22.25076857	      8.89685757	    -24.99999983
      0.94000000	     25.71453335	     39.92628179	      0.89656889	      0.02425819	      1.00370952	     -0.04600244	    -22.98706891	     31.00898512	    -24.65849369	     21.65679428	     45.00000000	    -12.54490329	     -2.82727533	    -90.00000000	     10.11900166	     83.10217871	      6.60079208	     34.09495284	    -14.93557366	     19.73060508	     -9.79398872	    -45.00000000	      1.91088012	      1.96522011	     19.76675453	     23.83102873	    -40.62604689	    -24.32024661	     68.67917286	     21.28894986	     10.79920244	    -24.99999983
      0.95000000	     25.57732892	     40.03367220	      1.12739791	      0.02428392	      1.00371566	     -0.04599409	    -22.93663159	     30.94342344	    -24.46842122	     21.60839833	     45.00000000	    -12.54256342	     -2.70067703	    -90.00000000	      9.99246923	     83.36341095	      6.55030801	     34.10211225	    -14.89764717	     19.71900634	     -9.94538298	    -45.00000000	      2.05753377	      2.05375357	     19.69202301	     23.93092725	    -40.28413548	    -24.28671325	     68.61576365	     21.22803614	     10.91192014	    -24.97802120
      0.96000000	     25.81310671	     40.29993829	      1.00664834	      0.02393516	      1.00351545	     -0.04588141	    -22.95958565	     30.95778460	    -24.53411981	     21.61727875	     45.00000000	    -12.54923159	     -2.30127328	    -90.00000000	      9.59406604	     84.19047723	      5.52566097	     32.63421587	    -13.39157018	     20.17796262	    -10.51894527	    -45.00000000	      1.92605866	      0.11966117	     19.55314941	     25.01523985	    -38.05891867	    -23.65194569	     68.94028187	     19.81805536	     13.61508085	    -24.27900140
      0.97000000	     25.66030995	     40.47814304	      1.23224101	      0.02411004	      1.00327806	     -0.04613054	    -22.89753178	     30.92044326	    -24.36169669	     21.59423174	     45.00000000	    -12.53425614	     -2.18812755	    -90.00000000	      9.48097716	     84.33486759	      5.50809702	     32.66129436	    -13.40822826	     20.14456986	    -10.62027830	    -45.00000000	      2.06312088	      0.30319763	     19.49229608	     25.03478528	    -37.77742210	    -23.61568762	     69.01438480	     19.79564673	     13.60183162	    -24.27485337
      0.98000000	     25.95766464	     40.67613574	      0.79489735	      0.02355445	      1.00342223	     -0.04596008	    -23.01389373	     30.65897493	    -24.23868236	     21.35641167	     45.00000000	    -12.66132881	     -1.72571702	    -90.00000000	      9.01951115	     85.25854829	      4.29019269	     30.97011331	    -11.88374098	     20.61720199	    -11.24196844	    -45.00000000	      1.91228822	     -1.78142140	     19.33208835	     26.31441493	    -35.03348278	    -23.17653523	     69.20079531	     18.36821497	     15.89002061	    -22.37153773
      0.99000000	     25.98036913	     41.22235175	      0.72648163	      0.02325390	      1.00331622	     -0.04566167	    -23.25694150	     30.51042282	    -24.51744971	     21.19558820	     45.00000000	    -12.80998032	     -1.45108255	    -90.00000000	      8.74641718	     85.77409393	      2.82269139	     30.42800573	    -10.92329857	     21.25062809	    -11.80092202	    -45.00000000	      1.35980441	     -4.92795400	     19.24836037	     28.40156609	    -31.51633317	    -23.35908783	     69.22468513	     16.22153527	     17.17526239	    -21.24003433
      1.00000000	     25.91389321	     41.38058301	      0.75679720	      0.02323193	      1.00359389	     -0.04592472	    -23.20602573	     30.28977359	    -24.12722255	     21.01709360	     45.00000000	    -12.85041526	     -1.30533309	    -90.00000000	      8.60083315	     85.81290297	      2.71891510	     30.25439257	    -10.85167780	     21.25722106	    -12.09116835	    -45.00000000	      1.61819904	     -4.84278517	     19.10420404	     28.46728525	    -30.88658275	    -23.26287765	     68.90431341	     16.20720271	     17.25513827	    -20.94747448
      1.01000000	     26.03527870	     41.53324779	      0.51252842	      0.02301256	      1.00318843	     -0.04597747	    -23.23076771	     30.08221636	    -23.90832860	     20.83803300	     45.00000000	    -12.91942121	     -0.92511401	    -90.00000000	      8.22141848	     86.65428684	      1.65267284	     28.62509049	     -9.59354770	     21.57506153	    -12.50458363	    -45.00000000	      1.40876055	     -6.50471202	     18.99335940	     29.50798844	    -28.54398946	    -22.88712776	     68.98826865	     15.30681505	     18.98233578	    -19.66025532
      1.02000000	     25.87697259	     41.81380995	      0.66151777	      0.02311048	      1.00365878	     -0.04605177	    -23.27075595	     29.83577024	    -23.66915114	     20.62550328	     45.00000000	    -13.00514726	     -0.78081215	    -90.00000000	      8.07730949	     86.60016648	      1.49504854	     28.44921024	     -9.50076386	     21.61660846	    -12.90245165	    -45.00000000	      1.70954702	     -6.55811707	     18.80071626	     29.66200531	    -27.87470892	    -22.68535769	     68.49827167	     15.21290727	     19.03978468	    -19.37896371
      1.03000000	     25.96195602	     42.30923959	      0.63055930	      0.02266839	      1.00325089	     -0.04577623	    -23.40489721	     29.76355672	    -23.83966489	     20.54643708	     45.00000000	    -13.08209802	     -0.40011181	    -90.00000000	      7.69774584	     87.46613674	     -0.72503083	     26.52459433	     -7.70473134	     22.30584779	    -13.68699052	    -45.00000000	      0.96856220	    -10.68902965	     18.60193604	     32.25489965	    -23.44844417	    -22.46257774	     68.42497401	     12.95492127	     21.52060072	    -17.73132151
      1.04000000	     26.14724658	     42.35270555	     -0.11895954	      0.02259103	      1.00301090	     -0.04617562	    -23.47881786	     29.11469483	    -23.18457161	     19.99369419	     45.00000000	    -13.28007987	     -0.14679200	    -90.00000000	      7.44512713	     87.57076557	     -1.38492194	     26.72847459	     -7.87818820	     22.56026538	    -14.05092124	    -45.00000000	      0.68336766	    -12.39236277	     18.49686900	     33.52382687	    -20.59332057	    -22.53681595	     68.03386216	     12.21601183	     21.36424182	    -17.08248468
      1.05000000	     25.85437164	     42.70669825	      0.28581351	      0.02269729	      1.00363577	     -0.04647979	    -23.42922150	     28.95652201	    -22.89187199	     19.86752218	     45.00000000	    -13.30792126	     -0.06527989	    -90.00000000	      7.36386654	     87.32273616	     -1.51675709	     26.34128729	     -7.71600333	     22.60658932	    -14.48307049	    -45.00000000	      1.00221319	    -12.47092150	     18.27783637	     33.67803491	    -20.05757296	    -22.38951963	     67.33275369	     12.20458593	     21.53934791	    -16.76072635
      1.06000000	     25.78362250	     43.35202929	      0.52736299	      0.02217501	      1.00299577	     -0.04618799	    -23.52117393	     29.02152216	    -23.14750480	     19.90762440	     45.00000000	    -13.32994272	      0.23815841	    -90.00000000	      7.06159666	     88.16472360	     -3.64370022	     23.78860002	     -5.76500069	     23.22885343	    -15.36537442	    -45.00000000	     -0.11887258	    -17.77053794	     17.97981812	     37.06085533	    -14.56617812	    -21.95612588	     66.81286152	      9.78729808	     24.61026783	    -15.10371265
